<svg width="230" height="35" viewBox="0 0 230 35" fill="none" xmlns="http://www.w3.org/2000/svg">
<path d="M12.5073 0.164982C7.77467 -0.663351 3.0454 1.69332 3.0454 5.75477C3.04708 10.0335 6.0438 15.1858 0 17.5002C5.99007 19.8583 2.99504 25.0106 3.04708 29.2456C3.04708 33.3071 7.77635 35.6652 12.5056 34.8354C21.5545 33.7373 208.132 33.7373 217.177 34.8354C221.905 35.6652 226.634 33.3071 226.634 29.2456C226.634 24.9669 223.639 19.8146 229.683 17.5002C223.693 15.1421 226.688 9.98977 226.634 5.75477C226.634 1.69332 221.905 -0.663351 217.177 0.164982C208.106 1.26602 21.5764 1.26602 12.5056 0.164982H12.5073Z" fill="#413267"/>
</svg>
