<svg width="130" height="130" viewBox="0 0 130 130" fill="none" xmlns="http://www.w3.org/2000/svg">
<path d="M110.415 11.0008L71.0978 11.4296C68.3714 11.4596 65.7423 12.2372 63.4844 13.6222L45.3033 18.4204C45.2355 18.439 45.1679 18.459 45.1015 18.4818L38.8933 20.5743L38.8905 20.5686L38.858 20.5858L38.1436 20.8259C36.3806 21.4205 34.7737 22.331 33.3892 23.4944L28.0413 26.3388L24.3739 28.3212L24.3148 28.244L23.7316 28.6685L21.9392 29.6362C20.3544 30.4937 18.964 31.6243 17.824 32.9593L8.54045 39.7013C8.51393 39.7199 8.49038 39.7386 8.46534 39.7586C5.42826 42.114 3.5209 45.4759 3.09082 49.222C2.66664 52.9297 3.73742 56.5772 6.11168 59.5045L43.8114 113.521C43.854 113.582 43.9026 113.644 43.9513 113.704C46.9073 117.293 51.3126 119.107 55.7137 118.995C58.7536 118.916 61.7921 117.92 64.3505 115.949L74.799 108.476L86.5996 106.314L92.6207 105.218L92.5899 105.675L111.633 106.187C111.709 106.184 111.783 106.183 111.859 106.181C119.756 105.98 126.087 98.8562 125.999 91.1866L125.137 25.3211C125.048 17.5356 118.437 10.9151 110.415 11.0008ZM35.3894 30.1464C35.7915 29.4332 36.2981 28.79 36.8844 28.2297L41.2852 25.8885L43.4814 25.1481C42.3207 27.7237 41.9598 30.6038 42.5004 33.4039L54.0256 97.8371L34.8342 37.0027C34.8239 36.9685 34.8121 36.9357 34.8003 36.8998C34.0035 34.6759 34.2185 32.2147 35.3894 30.1464ZM56.7107 25.7099L57.459 83.2296L48.3653 32.3962C48.3625 32.382 48.3595 32.3675 48.3566 32.3532C47.9117 30.0621 48.4833 27.6766 49.9253 25.8071C51.214 24.1362 53.0905 23.0013 55.2068 22.614L57.101 22.2681C56.8285 23.3829 56.6959 24.535 56.7107 25.7099ZM28.4492 32.7378C28.2372 34.7459 28.4655 36.7969 29.1547 38.7438L48.4228 99.8225L21.5916 46.1762C21.5665 46.1275 21.54 46.079 21.5135 46.0317C20.3131 43.9392 20.0981 41.4409 20.9288 39.1782C21.1998 38.4393 21.5739 37.749 22.0364 37.123L26.9792 33.5325L28.4492 32.7378ZM10.8411 55.9898C9.40651 54.2504 8.75844 52.0749 9.01325 49.8623C9.26363 47.664 10.3801 45.6917 12.1519 44.3009L14.4938 42.6014C14.5895 44.741 15.1846 46.8536 16.2671 48.7674L42.7067 101.631L10.981 56.1742C10.9353 56.1112 10.8897 56.0499 10.8411 55.9898ZM120.022 90.5404C120.074 95.0685 116.325 98.8491 111.664 98.9677L72.2083 99.4023C67.47 99.4522 63.5727 95.7531 63.5197 91.1538L62.6685 25.6427C62.6464 23.8003 63.2355 22.0465 64.3682 20.5729C64.5199 20.3714 64.676 20.1856 64.8277 20.0198C66.4258 18.2717 68.6277 17.2755 71.0285 17.214L110.482 16.7824C115.221 16.7309 119.119 20.43 119.171 25.0309L120.022 90.5404Z" fill="#FCBC1D"/>
</svg>
