<svg width="187" height="59" viewBox="0 0 187 59" fill="none" xmlns="http://www.w3.org/2000/svg">
<path d="M117.694 55.438C117.514 55.45 117.37 55.42 117.262 55.348C117.142 55.276 117.064 55.18 117.028 55.06C116.98 54.952 116.968 54.838 116.992 54.718C117.004 54.61 117.052 54.514 117.136 54.43C117.22 54.346 117.334 54.304 117.478 54.304C118.138 54.268 118.624 54.088 118.936 53.764C119.26 53.452 119.422 52.954 119.422 52.27V43.864C119.422 43.624 119.482 43.444 119.602 43.324C119.734 43.192 119.92 43.126 120.16 43.126C120.388 43.126 120.562 43.192 120.682 43.324C120.814 43.444 120.88 43.624 120.88 43.864V52.162C120.88 52.894 120.754 53.494 120.502 53.962C120.262 54.442 119.908 54.796 119.44 55.024C118.972 55.264 118.39 55.402 117.694 55.438ZM120.142 41.146C119.842 41.146 119.608 41.068 119.44 40.912C119.272 40.744 119.188 40.522 119.188 40.246C119.188 39.958 119.272 39.742 119.44 39.598C119.608 39.442 119.842 39.364 120.142 39.364C120.454 39.364 120.694 39.442 120.862 39.598C121.03 39.742 121.114 39.958 121.114 40.246C121.114 40.522 121.03 40.744 120.862 40.912C120.694 41.068 120.454 41.146 120.142 41.146ZM126.718 52.162C126.01 52.162 125.422 52.036 124.954 51.784C124.498 51.52 124.15 51.13 123.91 50.614C123.682 50.098 123.568 49.456 123.568 48.688V43.864C123.568 43.612 123.628 43.426 123.748 43.306C123.88 43.186 124.06 43.126 124.288 43.126C124.528 43.126 124.708 43.186 124.828 43.306C124.96 43.426 125.026 43.612 125.026 43.864V48.67C125.026 49.438 125.182 50.014 125.494 50.398C125.818 50.77 126.322 50.956 127.006 50.956C127.75 50.956 128.356 50.704 128.824 50.2C129.292 49.696 129.526 49.036 129.526 48.22V43.864C129.526 43.612 129.586 43.426 129.706 43.306C129.838 43.186 130.024 43.126 130.264 43.126C130.492 43.126 130.666 43.186 130.786 43.306C130.918 43.426 130.984 43.612 130.984 43.864V51.37C130.984 51.874 130.75 52.126 130.282 52.126C130.054 52.126 129.874 52.06 129.742 51.928C129.622 51.796 129.562 51.61 129.562 51.37V49.732L129.796 49.984C129.556 50.692 129.16 51.232 128.608 51.604C128.068 51.976 127.438 52.162 126.718 52.162ZM137.582 55.402C136.946 55.402 136.322 55.324 135.71 55.168C135.11 55.024 134.564 54.79 134.072 54.466C133.928 54.382 133.832 54.28 133.784 54.16C133.748 54.04 133.742 53.92 133.766 53.8C133.79 53.692 133.844 53.59 133.928 53.494C134.012 53.41 134.108 53.356 134.216 53.332C134.336 53.308 134.456 53.326 134.576 53.386C135.104 53.71 135.608 53.932 136.088 54.052C136.568 54.172 137.042 54.232 137.51 54.232C138.362 54.232 139.004 54.004 139.436 53.548C139.88 53.092 140.102 52.432 140.102 51.568V49.534H140.282C140.102 50.23 139.718 50.782 139.13 51.19C138.554 51.598 137.876 51.802 137.096 51.802C136.292 51.802 135.596 51.622 135.008 51.262C134.42 50.89 133.964 50.374 133.64 49.714C133.328 49.054 133.172 48.292 133.172 47.428C133.172 46.78 133.262 46.192 133.442 45.664C133.622 45.124 133.88 44.668 134.216 44.296C134.564 43.912 134.978 43.618 135.458 43.414C135.95 43.198 136.496 43.09 137.096 43.09C137.888 43.09 138.572 43.294 139.148 43.702C139.724 44.098 140.096 44.638 140.264 45.322L140.084 45.538V43.864C140.084 43.624 140.144 43.444 140.264 43.324C140.396 43.192 140.576 43.126 140.804 43.126C141.044 43.126 141.224 43.192 141.344 43.324C141.464 43.444 141.524 43.624 141.524 43.864V51.37C141.524 52.702 141.188 53.704 140.516 54.376C139.856 55.06 138.878 55.402 137.582 55.402ZM137.366 50.614C137.93 50.614 138.416 50.488 138.824 50.236C139.232 49.972 139.544 49.6 139.76 49.12C139.988 48.64 140.102 48.076 140.102 47.428C140.102 46.456 139.856 45.688 139.364 45.124C138.872 44.548 138.206 44.26 137.366 44.26C136.814 44.26 136.334 44.392 135.926 44.656C135.518 44.908 135.2 45.274 134.972 45.754C134.756 46.222 134.648 46.78 134.648 47.428C134.648 48.4 134.894 49.174 135.386 49.75C135.878 50.326 136.538 50.614 137.366 50.614ZM147.013 52.162C146.413 52.162 145.873 52.048 145.393 51.82C144.925 51.58 144.553 51.256 144.277 50.848C144.001 50.44 143.863 49.984 143.863 49.48C143.863 48.832 144.025 48.322 144.349 47.95C144.685 47.578 145.231 47.314 145.987 47.158C146.755 47.002 147.799 46.924 149.119 46.924H149.929V47.878H149.137C148.165 47.878 147.397 47.926 146.833 48.022C146.281 48.106 145.891 48.256 145.663 48.472C145.447 48.688 145.339 48.994 145.339 49.39C145.339 49.882 145.507 50.284 145.843 50.596C146.191 50.908 146.659 51.064 147.247 51.064C147.727 51.064 148.147 50.95 148.507 50.722C148.879 50.494 149.167 50.182 149.371 49.786C149.587 49.39 149.695 48.934 149.695 48.418V46.366C149.695 45.622 149.545 45.088 149.245 44.764C148.945 44.428 148.453 44.26 147.769 44.26C147.349 44.26 146.929 44.314 146.509 44.422C146.089 44.53 145.645 44.704 145.177 44.944C145.009 45.028 144.865 45.058 144.745 45.034C144.625 44.998 144.529 44.932 144.457 44.836C144.385 44.74 144.343 44.632 144.331 44.512C144.319 44.38 144.343 44.254 144.403 44.134C144.475 44.014 144.583 43.918 144.727 43.846C145.255 43.582 145.777 43.39 146.293 43.27C146.809 43.15 147.301 43.09 147.769 43.09C148.525 43.09 149.149 43.216 149.641 43.468C150.133 43.708 150.499 44.08 150.739 44.584C150.979 45.076 151.099 45.712 151.099 46.492V51.37C151.099 51.61 151.039 51.796 150.919 51.928C150.811 52.06 150.649 52.126 150.433 52.126C150.205 52.126 150.031 52.06 149.911 51.928C149.791 51.796 149.731 51.61 149.731 51.37V49.966H149.893C149.797 50.422 149.611 50.812 149.335 51.136C149.071 51.46 148.741 51.712 148.345 51.892C147.949 52.072 147.505 52.162 147.013 52.162ZM159.164 52.09C158.924 52.09 158.744 52.024 158.624 51.892C158.504 51.748 158.444 51.55 158.444 51.298V43.936C158.444 43.684 158.504 43.492 158.624 43.36C158.744 43.228 158.924 43.162 159.164 43.162C159.392 43.162 159.572 43.228 159.704 43.36C159.836 43.492 159.902 43.684 159.902 43.936V51.298C159.902 51.55 159.836 51.748 159.704 51.892C159.584 52.024 159.404 52.09 159.164 52.09ZM159.164 41.146C158.864 41.146 158.63 41.068 158.462 40.912C158.294 40.744 158.21 40.522 158.21 40.246C158.21 39.958 158.294 39.742 158.462 39.598C158.63 39.442 158.864 39.364 159.164 39.364C159.476 39.364 159.71 39.442 159.866 39.598C160.034 39.742 160.118 39.958 160.118 40.246C160.118 40.522 160.034 40.744 159.866 40.912C159.71 41.068 159.476 41.146 159.164 41.146ZM168.006 52.126C167.766 52.126 167.58 52.06 167.448 51.928C167.328 51.796 167.268 51.61 167.268 51.37V43.864C167.268 43.624 167.328 43.444 167.448 43.324C167.568 43.192 167.742 43.126 167.97 43.126C168.198 43.126 168.372 43.192 168.492 43.324C168.624 43.444 168.69 43.624 168.69 43.864V45.322H168.51C168.702 44.614 169.068 44.068 169.608 43.684C170.148 43.3 170.814 43.096 171.606 43.072C171.786 43.06 171.93 43.102 172.038 43.198C172.146 43.282 172.206 43.432 172.218 43.648C172.23 43.852 172.182 44.014 172.074 44.134C171.966 44.254 171.798 44.326 171.57 44.35L171.282 44.386C170.466 44.458 169.836 44.722 169.392 45.178C168.96 45.622 168.744 46.234 168.744 47.014V51.37C168.744 51.61 168.678 51.796 168.546 51.928C168.426 52.06 168.246 52.126 168.006 52.126ZM174.44 52.09C174.2 52.09 174.02 52.024 173.9 51.892C173.78 51.748 173.72 51.55 173.72 51.298V43.936C173.72 43.684 173.78 43.492 173.9 43.36C174.02 43.228 174.2 43.162 174.44 43.162C174.668 43.162 174.848 43.228 174.98 43.36C175.112 43.492 175.178 43.684 175.178 43.936V51.298C175.178 51.55 175.112 51.748 174.98 51.892C174.86 52.024 174.68 52.09 174.44 52.09ZM174.44 41.146C174.14 41.146 173.906 41.068 173.738 40.912C173.57 40.744 173.486 40.522 173.486 40.246C173.486 39.958 173.57 39.742 173.738 39.598C173.906 39.442 174.14 39.364 174.44 39.364C174.752 39.364 174.986 39.442 175.142 39.598C175.31 39.742 175.394 39.958 175.394 40.246C175.394 40.522 175.31 40.744 175.142 40.912C174.986 41.068 174.752 41.146 174.44 41.146ZM180.999 52.162C180.291 52.162 179.703 52.036 179.235 51.784C178.779 51.52 178.431 51.13 178.191 50.614C177.963 50.098 177.849 49.456 177.849 48.688V43.864C177.849 43.612 177.909 43.426 178.029 43.306C178.161 43.186 178.341 43.126 178.569 43.126C178.809 43.126 178.989 43.186 179.109 43.306C179.241 43.426 179.307 43.612 179.307 43.864V48.67C179.307 49.438 179.463 50.014 179.775 50.398C180.099 50.77 180.603 50.956 181.287 50.956C182.031 50.956 182.637 50.704 183.105 50.2C183.573 49.696 183.807 49.036 183.807 48.22V43.864C183.807 43.612 183.867 43.426 183.987 43.306C184.119 43.186 184.305 43.126 184.545 43.126C184.773 43.126 184.947 43.186 185.067 43.306C185.199 43.426 185.265 43.612 185.265 43.864V51.37C185.265 51.874 185.031 52.126 184.563 52.126C184.335 52.126 184.155 52.06 184.023 51.928C183.903 51.796 183.843 51.61 183.843 51.37V49.732L184.077 49.984C183.837 50.692 183.441 51.232 182.889 51.604C182.349 51.976 181.719 52.162 180.999 52.162Z" fill="#FDF1DD"/>
<path d="M76.68 31.4C75.8267 31.4 75.1067 31.2933 74.52 31.08C73.9333 30.8933 73.48 30.64 73.16 30.32C72.8667 30 72.72 29.6933 72.72 29.4C72.72 29.1333 72.76 28.9067 72.84 28.72C72.9467 28.5067 73.04 28.3333 73.12 28.2C73.4933 28.6267 73.96 28.9867 74.52 29.28C75.1067 29.5733 75.7733 29.72 76.52 29.72C77.5333 29.72 78.2667 29.44 78.72 28.88C79.2 28.2933 79.4933 27.5467 79.6 26.64C79.7067 25.7333 79.76 24.7333 79.76 23.64V3.92C79.76 3.6 79.7733 3.38667 79.8 3.28C79.8533 3.14667 80 3.06667 80.24 3.04C80.5067 3.01333 80.9467 3 81.56 3V24.24C81.56 25.0667 81.5067 25.9067 81.4 26.76C81.2933 27.5867 81.08 28.36 80.76 29.08C80.4667 29.7733 79.9867 30.3333 79.32 30.76C78.68 31.1867 77.8 31.4 76.68 31.4ZM93.5141 31.4C91.8607 31.4 90.5541 31.16 89.5941 30.68C88.6341 30.1733 87.9141 29.4933 87.4341 28.64C86.9541 27.7867 86.6341 26.8133 86.4741 25.72C86.3407 24.6267 86.2741 23.4667 86.2741 22.24V3.52C86.2741 3.33333 86.3007 3.21333 86.3541 3.16C86.4074 3.08 86.5541 3.04 86.7941 3.04C87.0607 3.01333 87.5007 3 88.1141 3V22.28C88.1141 23.2667 88.1674 24.2133 88.2741 25.12C88.3807 26 88.6207 26.7867 88.9941 27.48C89.3674 28.1733 89.9141 28.72 90.6341 29.12C91.3541 29.4933 92.3141 29.68 93.5141 29.68C94.5007 29.68 95.4474 29.5867 96.3541 29.4C97.2874 29.1867 97.9674 28.9733 98.3941 28.76V3.48C98.3941 3.29333 98.4207 3.17333 98.4741 3.12C98.5541 3.06666 98.7141 3.04 98.9541 3.04C99.2207 3.01333 99.6474 3 100.234 3V30.04C99.7007 30.3867 98.8074 30.7067 97.5541 31C96.3007 31.2667 94.9541 31.4 93.5141 31.4ZM111.706 31.4C110.559 31.4 109.519 31.2133 108.586 30.84C107.679 30.4667 106.893 29.7867 106.226 28.8C105.586 27.8133 105.093 26.4 104.746 24.56C104.399 22.6933 104.226 20.2933 104.226 17.36C104.226 14.2933 104.426 11.8 104.826 9.88C105.226 7.96 105.799 6.48 106.546 5.44C107.293 4.37333 108.173 3.64 109.186 3.24C110.199 2.81333 111.333 2.6 112.586 2.6C113.786 2.6 114.773 2.78667 115.546 3.16C116.346 3.50667 116.746 3.90667 116.746 4.36C116.746 4.54667 116.719 4.74667 116.666 4.96C116.639 5.14666 116.573 5.33333 116.466 5.52C116.066 5.17333 115.573 4.90667 114.986 4.72C114.426 4.50667 113.733 4.4 112.906 4.4C111.866 4.4 110.933 4.58667 110.106 4.96C109.279 5.33333 108.559 5.98667 107.946 6.92C107.359 7.85333 106.906 9.16 106.586 10.84C106.266 12.4933 106.106 14.6267 106.106 17.24C106.106 20.0133 106.253 22.2267 106.546 23.88C106.839 25.5067 107.239 26.7333 107.746 27.56C108.279 28.3867 108.879 28.9333 109.546 29.2C110.239 29.4667 110.986 29.6 111.786 29.6C112.479 29.6 113.079 29.5067 113.586 29.32C114.093 29.1067 114.493 28.8667 114.786 28.6C115.106 28.3333 115.293 28.1067 115.346 27.92V16.84H111.106V15.76C111.106 15.4133 111.293 15.24 111.666 15.24H117.106L117.066 28.96C116.906 29.2 116.613 29.52 116.186 29.92C115.786 30.2933 115.213 30.64 114.466 30.96C113.746 31.2533 112.826 31.4 111.706 31.4ZM120.198 31.04C120.091 31.04 119.931 31.04 119.718 31.04C119.531 31.04 119.318 31.0267 119.078 31L126.758 3.08C126.784 2.92 126.984 2.84 127.358 2.84C127.491 2.84 127.624 2.85333 127.758 2.88C127.918 2.88 128.038 2.89333 128.118 2.92L135.838 30.52C135.891 30.7067 135.864 30.84 135.758 30.92C135.678 31 135.464 31.04 135.118 31.04C134.984 31.04 134.824 31.04 134.638 31.04C134.451 31.04 134.238 31.0267 133.998 31L129.278 13.32C128.984 12.2 128.704 11.12 128.438 10.08C128.198 9.04 127.984 8.10666 127.798 7.28C127.611 6.45333 127.504 5.84 127.478 5.44C127.424 5.84 127.304 6.45333 127.118 7.28C126.958 8.10666 126.744 9.04 126.478 10.08C126.238 11.12 125.958 12.2 125.638 13.32L121.118 30.64C121.064 30.8 120.971 30.9067 120.838 30.96C120.731 31.0133 120.518 31.04 120.198 31.04ZM122.678 23.04V21.32H132.838V23.04H122.678ZM138.54 31V3.96C138.54 3.64 138.566 3.41333 138.62 3.28C138.673 3.14667 138.833 3.06667 139.1 3.04C139.366 3.01333 139.793 3 140.38 3V30.52C140.38 30.68 140.34 30.8 140.26 30.88C140.206 30.9333 140.06 30.9733 139.82 31C139.58 31 139.153 31 138.54 31ZM145.982 19C145.609 19 145.436 18.9467 145.462 18.84C145.516 18.7067 145.542 18.5467 145.542 18.36V3.68C145.542 3.54667 145.542 3.4 145.542 3.24C145.569 3.08 145.649 3 145.782 3H149.822C151.502 3 152.836 3.33333 153.822 4C154.836 4.64 155.556 5.52 155.982 6.64C156.436 7.76 156.662 9.05333 156.662 10.52C156.662 11.9867 156.502 13.2533 156.182 14.32C155.862 15.36 155.382 16.2267 154.742 16.92C154.129 17.6133 153.382 18.1333 152.502 18.48C151.649 18.8267 150.689 19 149.622 19H145.982ZM145.102 31V3.48C145.102 3.48 145.116 3.4 145.142 3.24C145.196 3.08 145.342 3 145.582 3H146.422C146.662 3 146.796 3.08 146.822 3.24C146.876 3.4 146.902 3.48 146.902 3.48V30.52C146.902 30.68 146.876 30.8 146.822 30.88C146.769 30.9333 146.609 30.9733 146.342 31C146.102 31 145.689 31 145.102 31ZM155.622 31.04C155.516 31.04 155.369 31.0267 155.182 31C155.022 31 154.822 31 154.582 31C154.342 28.76 153.982 26.8533 153.502 25.28C153.022 23.7067 152.529 22.4267 152.022 21.44C151.516 20.4533 151.089 19.7467 150.742 19.32C150.396 18.8667 150.222 18.64 150.222 18.64C150.222 18.64 150.196 18.5733 150.142 18.44C150.116 18.28 150.209 18.1467 150.422 18.04L151.262 17.6C151.476 17.6 151.636 17.68 151.742 17.84C151.742 17.84 151.942 18.1067 152.342 18.64C152.769 19.1733 153.262 19.9733 153.822 21.04C154.382 22.1067 154.916 23.4267 155.422 25C155.929 26.5467 156.289 28.36 156.502 30.44C156.502 30.6533 156.449 30.8 156.342 30.88C156.262 30.96 156.022 31.0133 155.622 31.04ZM146.702 17.28H149.702C150.876 17.28 151.822 17.0133 152.542 16.48C153.262 15.9467 153.809 15.1733 154.182 14.16C154.556 13.1467 154.742 11.9067 154.742 10.44C154.742 9.37333 154.596 8.4 154.302 7.52C154.036 6.64 153.542 5.94667 152.822 5.44C152.129 4.90666 151.156 4.64 149.902 4.64H146.702V17.28ZM160.378 31V3.48C160.378 3.48 160.404 3.4 160.458 3.24C160.511 3.08 160.658 3 160.898 3H170.458C170.458 3.48 170.444 3.84 170.418 4.08C170.418 4.32 170.391 4.48 170.338 4.56C170.284 4.64 170.204 4.68 170.098 4.68H162.178V29.32H170.458C170.458 29.8267 170.444 30.2 170.418 30.44C170.391 30.68 170.351 30.84 170.298 30.92C170.244 30.9733 170.151 31 170.018 31H160.378ZM160.938 16.52V14.84H169.578C169.578 15.5333 169.564 15.9867 169.538 16.2C169.511 16.4133 169.391 16.52 169.178 16.52H160.938ZM178.368 31.4C176.502 31.4 175.155 31.16 174.328 30.68C173.502 30.1733 173.088 29.7333 173.088 29.36C173.088 29.1467 173.128 28.9333 173.208 28.72C173.315 28.48 173.475 28.2667 173.688 28.08C174.115 28.48 174.675 28.8267 175.368 29.12C176.088 29.4133 177.062 29.56 178.288 29.56C180.102 29.56 181.408 29.08 182.208 28.12C183.008 27.1333 183.408 25.88 183.408 24.36C183.408 23.16 183.195 22.0933 182.768 21.16C182.342 20.2 181.568 19.1467 180.448 18L176.008 13.52C175.102 12.5333 174.408 11.6133 173.928 10.76C173.448 9.88 173.208 8.92 173.208 7.88C173.208 6.33333 173.782 5.06667 174.928 4.08C176.102 3.09333 177.728 2.6 179.808 2.6C181.568 2.6 182.835 2.78667 183.608 3.16C184.408 3.53333 184.808 3.90667 184.808 4.28C184.808 4.46667 184.755 4.66667 184.648 4.88C184.568 5.06667 184.448 5.24 184.288 5.4C183.968 5.13333 183.422 4.88 182.648 4.64C181.902 4.37333 180.968 4.24 179.848 4.24C178.435 4.24 177.288 4.57333 176.408 5.24C175.528 5.88 175.088 6.74667 175.088 7.84C175.088 8.69333 175.302 9.46666 175.728 10.16C176.182 10.8533 176.742 11.56 177.408 12.28L182.328 17.2C183.475 18.4 184.248 19.5333 184.648 20.6C185.075 21.64 185.288 22.8267 185.288 24.16C185.288 25.5467 185.048 26.7867 184.568 27.88C184.115 28.9733 183.382 29.84 182.368 30.48C181.355 31.0933 180.022 31.4 178.368 31.4Z" fill="#FDF1DD"/>
<path d="M52.8964 0.000404344L33.5348 0.210831C32.1922 0.22556 30.8975 0.607133 29.7856 1.28681L20.8323 3.64148C20.7989 3.6506 20.7656 3.66042 20.7329 3.67164L17.6757 4.69852L17.6743 4.69571L17.6583 4.70413L17.3065 4.82197C16.4383 5.11376 15.647 5.56056 14.9652 6.13152L12.3316 7.52735L10.5256 8.50022L10.4965 8.46234L10.2093 8.67066L9.32661 9.14552C8.54617 9.56637 7.86147 10.1212 7.30007 10.7763L2.7284 14.0849C2.71534 14.094 2.70374 14.1032 2.69141 14.113C1.1958 15.2689 0.256519 16.9187 0.0447267 18.7571C-0.164165 20.5766 0.363141 22.3666 1.53235 23.8031L20.0976 50.3112C20.1186 50.3413 20.1425 50.3715 20.1665 50.401C21.6222 52.1622 23.7916 53.0523 25.9589 52.9976C27.4559 52.959 28.9522 52.4701 30.2121 51.5029L35.3575 47.8352L41.1687 46.7746L44.1338 46.2366L44.1186 46.4611L53.4962 46.7122C53.534 46.7108 53.5702 46.7101 53.6079 46.7094C57.4964 46.6105 60.6145 43.1146 60.571 39.3508L60.1467 7.02793C60.1024 3.2073 56.8472 -0.0416809 52.8964 0.000404344ZM15.9502 9.39593C16.1482 9.04592 16.3977 8.73028 16.6864 8.45532L18.8536 7.3064L19.9351 6.94306C19.3635 8.20702 19.1858 9.62038 19.452 10.9945L25.1276 42.6145L15.6768 12.7606C15.6717 12.7438 15.6659 12.7277 15.6601 12.7101C15.2677 11.6187 15.3736 10.4109 15.9502 9.39593ZM26.4499 7.21872L26.8184 35.446L22.3402 10.5C22.3388 10.493 22.3373 10.4859 22.3359 10.4789C22.1168 9.35455 22.3983 8.18387 23.1084 7.26642C23.743 6.44646 24.6671 5.88953 25.7093 5.69944L26.6421 5.5297C26.5079 6.07681 26.4426 6.64215 26.4499 7.21872ZM12.5325 10.6676C12.4281 11.6531 12.5405 12.6596 12.8799 13.615L22.3685 43.5888L9.15543 17.2624C9.1431 17.2385 9.13005 17.2147 9.11699 17.1915C8.52586 16.1646 8.41996 14.9386 8.82904 13.8282C8.9625 13.4656 9.14673 13.1268 9.37448 12.8196L11.8086 11.0576L12.5325 10.6676ZM3.86134 22.0783C3.15489 21.2247 2.83575 20.1571 2.96123 19.0713C3.08453 17.9925 3.63432 17.0246 4.50688 16.3421L5.66013 15.5081C5.70728 16.5581 6.0003 17.5948 6.53341 18.534L19.5536 44.4761L3.93025 22.1688C3.90776 22.1379 3.88528 22.1078 3.86134 22.0783ZM57.6276 39.0337C57.653 41.2558 55.8071 43.1111 53.5115 43.1693L34.0817 43.3826C31.7483 43.4071 29.8291 41.5918 29.803 39.3347L29.3838 7.18575C29.3729 6.28162 29.663 5.42098 30.2208 4.69782C30.2955 4.59892 30.3724 4.50773 30.4471 4.42637C31.2341 3.56853 32.3184 3.07964 33.5007 3.04948L52.9298 2.83765C55.2631 2.8124 57.183 4.62767 57.2084 6.88555L57.6276 39.0337Z" fill="#FDF1DD"/>
</svg>
