<svg width="419" height="368" viewBox="0 0 419 368" fill="none" xmlns="http://www.w3.org/2000/svg">
<path d="M365.908 0.00280753L231.975 1.46388C222.688 1.56615 213.732 4.21557 206.04 8.93484L144.106 25.2842C143.875 25.3476 143.645 25.4158 143.419 25.4937L122.271 32.6237L122.261 32.6042L122.15 32.6627L119.717 33.4809C113.711 35.5069 108.237 38.6092 103.521 42.5736L85.3032 52.2654L72.8103 59.0204L72.609 58.7574L70.6223 60.2039L64.5164 63.501C59.1177 66.4231 54.3813 70.2755 50.4979 74.8242L18.8736 97.7971C18.7832 97.8603 18.703 97.9242 18.6177 97.9922C8.27189 106.018 1.77446 117.473 0.309396 130.238C-1.1356 142.872 2.51201 155.3 10.6 165.274L139.024 349.331C139.169 349.54 139.335 349.749 139.501 349.954C149.57 362.183 164.577 368.363 179.569 367.984C189.925 367.715 200.275 364.321 208.991 357.605L244.584 332.139L284.782 324.775L305.293 321.039L305.188 322.598L370.057 324.341C370.319 324.332 370.569 324.327 370.83 324.322C397.728 323.635 419.298 299.362 418.997 273.228L416.062 48.7977C415.755 22.2696 393.238 -0.289407 365.908 0.00280753ZM110.335 65.2397C111.704 62.8094 113.43 60.6178 115.427 58.7087L130.419 50.7313L137.9 48.2084C133.946 56.9846 132.717 66.7981 134.558 76.3392L173.819 295.889L108.443 88.6019C108.408 88.4853 108.368 88.3735 108.328 88.2513C105.614 80.6733 106.346 72.287 110.335 65.2397ZM182.966 50.1225L185.515 246.116L154.537 72.9057C154.528 72.8571 154.517 72.8078 154.507 72.7592C152.992 64.9524 154.939 56.8239 159.851 50.4537C164.241 44.7603 170.633 40.8934 177.843 39.5735L184.295 38.3949C183.367 42.1937 182.915 46.1191 182.966 50.1225ZM86.6929 74.0694C85.9708 80.9121 86.7483 87.9007 89.0961 94.5344L154.733 302.654L63.3322 119.86C63.2469 119.694 63.1567 119.529 63.0663 119.367C58.9772 112.237 58.2447 103.725 61.0744 96.0147C61.9976 93.497 63.2721 91.1446 64.8475 89.0116L81.6854 76.7773L86.6929 74.0694ZM26.7106 153.298C21.8238 147.372 19.6162 139.959 20.4842 132.42C21.3371 124.929 25.1402 118.209 31.1761 113.47L39.1537 107.679C39.4798 114.969 41.5068 122.168 45.1945 128.689L135.261 308.815L27.1873 153.927C27.0317 153.712 26.8762 153.503 26.7106 153.298ZM398.636 271.027C398.812 286.455 386.043 299.338 370.163 299.742L235.758 301.223C219.617 301.393 206.341 288.788 206.161 273.117L203.261 49.8935C203.186 43.6158 205.192 37.64 209.051 32.6188C209.568 31.9321 210.1 31.299 210.616 30.7341C216.06 24.7777 223.561 21.3832 231.739 21.1738L366.139 19.7029C382.28 19.5276 395.561 32.1318 395.736 47.8091L398.636 271.027Z" fill="#FDF1DD"/>
</svg>
