<svg width="230" height="230" viewBox="0 0 230 230" fill="none" xmlns="http://www.w3.org/2000/svg">
<g clip-path="url(#clip0_68_937)">
<path d="M115 230C178.513 230 230 178.513 230 115C230 51.4873 178.513 0 115 0C51.4873 0 0 51.4873 0 115C0 178.513 51.4873 230 115 230Z" fill="white"/>
<path d="M46 142.68V81.313C46.0024 79.3044 46.5309 77.3316 47.5328 75.5907C48.5347 73.8499 49.975 72.4018 51.7105 71.3906L106.335 39.6003C108.967 38.0681 111.958 37.2609 115.004 37.2609C118.049 37.2609 121.04 38.0681 123.672 39.6003L178.29 71.3906C180.025 72.4018 181.465 73.8499 182.467 75.5907C183.469 77.3316 183.998 79.3044 184 81.313V142.68C183.999 144.69 183.471 146.664 182.469 148.406C181.467 150.148 180.026 151.598 178.29 152.609L123.665 184.4C121.032 185.93 118.041 186.736 114.996 186.736C111.951 186.736 108.961 185.93 106.328 184.4L51.7033 152.609C49.9681 151.597 48.5285 150.147 47.5279 148.405C46.5272 146.663 46.0005 144.689 46 142.68Z" stroke="black" stroke-width="4" stroke-linecap="round" stroke-linejoin="round"/>
<path d="M182.203 75.3401L115 114.871L47.7969 75.3401M115 186.746V114.871" stroke="black" stroke-width="4" stroke-linecap="round" stroke-linejoin="round"/>
<path d="M115 80.375C110.237 80.375 106.375 77.8006 106.375 74.625C106.375 71.4494 110.237 68.875 115 68.875C119.763 68.875 123.625 71.4494 123.625 74.625C123.625 77.8006 119.763 80.375 115 80.375Z" fill="black"/>
<path d="M132.25 135C129.074 135 126.5 131.138 126.5 126.375C126.5 121.612 129.074 117.75 132.25 117.75C135.426 117.75 138 121.612 138 126.375C138 131.138 135.426 135 132.25 135Z" fill="black"/>
<path d="M166.75 146.5C163.574 146.5 161 142.638 161 137.875C161 133.112 163.574 129.25 166.75 129.25C169.926 129.25 172.5 133.112 172.5 137.875C172.5 142.638 169.926 146.5 166.75 146.5Z" fill="black"/>
<path d="M97.75 135C94.5744 135 92 131.138 92 126.375C92 121.612 94.5744 117.75 97.75 117.75C100.926 117.75 103.5 121.612 103.5 126.375C103.5 131.138 100.926 135 97.75 135Z" fill="black"/>
<path d="M63.25 114.875C60.0744 114.875 57.5 111.013 57.5 106.25C57.5 101.487 60.0744 97.625 63.25 97.625C66.4256 97.625 69 101.487 69 106.25C69 111.013 66.4256 114.875 63.25 114.875Z" fill="black"/>
<path d="M97.75 166.625C94.5744 166.625 92 162.763 92 158C92 153.237 94.5744 149.375 97.75 149.375C100.926 149.375 103.5 153.237 103.5 158C103.5 162.763 100.926 166.625 97.75 166.625Z" fill="black"/>
<path d="M63.25 146.5C60.0744 146.5 57.5 142.638 57.5 137.875C57.5 133.112 60.0744 129.25 63.25 129.25C66.4256 129.25 69 133.112 69 137.875C69 142.638 66.4256 146.5 63.25 146.5Z" fill="black"/>
</g>
<defs>
<clipPath id="clip0_68_937">
<rect width="230" height="230" fill="white"/>
</clipPath>
</defs>
</svg>
